
<svg version="1.1" xmlns="http://www.w3.org/2000/svg" xmlns:xlink="http://www.w3.org/1999/xlink" width="510" height="823"><desc>%23%20https%3A%2F%2Fsequencediagram.org%2F%0A%0Afontfamily%20consolas%0A%0Atitle%20UDP%20Client%20Initialization%0A%0Aparticipant%20%22Client%3Adynamic%22%20as%20c1%0Aparticipant%20%22Server%3A4567%22%20as%20s%0Aparticipant%20%22Server%3Adynamic%22%20as%20s1%0Aparticipantspacing%202%0A%0A%3D%3D%20Beginning%20of%20communication%20%3D%3D%0A%0Aspace%20-1%0A%0Aactivate%20c1%0Ac1%20-%3E(1)%20s%3A%200%2CAUTH%0Aactivate%20s%0As%20--%3E%3E%20s1%3A%20%3C%3Copen%20socket%3E%3E%0Adeactivate%20s%0As1%20-%3E(1)%20c1%3A%200%2CCONFIRM%0Adeactivate%20c1%0A%0Aspace%20-1%0A%0Aactivate%20s1%0As1%20-%3E(1)%20c1%3A%200%2COK%0Aactivate%20c1%0Ac1%20-%3E(1)%20s1%3A%200%2CCONFIRM%0Adeactivate%20s1%0Adeactivate%20c1%0A%0Aspace%20-1%0A%0Aactivate%20c1%0Ac1%20-%3E(1)%20s1%3A%201%2CJOIN%0Aactivate%20s1%0As1%20-%3E(1)%20c1%3A%201%2CCONFIRM%0Adeactivate%20s1%0Adeactivate%20c1%0A%0Aspace%20-1%0A%0Aactivate%20s1%0As1%20-%3E(1)%20c1%3A%201%2COK%0Aactivate%20c1%0Ac1%20-%3E(1)%20s1%3A%201%2CCONFIRM%0Adeactivate%20s1%0Adeactivate%20c1%0A%0Anote%20over%20c1%2Cs1%3A%20Following%20communication%20...%0A%0Aspace%20-3%0A</desc><defs/><g><g/><g/><g/><g/><g/><g/><g/><g/><g/><g/><g/><g/><g/><g/><g><rect fill="white" stroke="none" x="0" y="0" width="510" height="823"/></g><g><text fill="black" stroke="none" font-family="consolas" font-size="16.5pt" font-style="normal" font-weight="normal" text-decoration="normal" x="144.45860612596482" y="24.502804949999998" text-anchor="start" dominant-baseline="alphabetic" xml:space="preserve">UDP Client Initialization</text></g><g/><g><path fill="none" stroke="black" paint-order="fill stroke markers" d=" M 73.07620330126562 101.37878478799999 L 73.07620330126562 823.3471899795043" stroke-miterlimit="10" stroke-width="1.4659797833333332" stroke-dasharray="13.532121076923076,5.863919133333333"/><path fill="none" stroke="black" paint-order="fill stroke markers" d=" M 253.8414872905156 101.37878478799999 L 253.8414872905156 823.3471899795043" stroke-miterlimit="10" stroke-width="1.4659797833333332" stroke-dasharray="13.532121076923076,5.863919133333333"/><path fill="none" stroke="black" paint-order="fill stroke markers" d=" M 435.8200815214648 101.37878478799999 L 435.8200815214648 823.3471899795043" stroke-miterlimit="10" stroke-width="1.4659797833333332" stroke-dasharray="13.532121076923076,5.863919133333333"/></g><g><path fill="none" stroke="none"/><g><path fill="white" stroke="black" paint-order="fill stroke markers" d=" M 8.795878700000003 55.69047771199999 L 137.35652790253124 55.69047771199999 L 137.35652790253124 101.37878478799999 L 8.795878700000003 101.37878478799999 L 8.795878700000003 55.69047771199999 Z" stroke-miterlimit="10" stroke-width="2.814681184" stroke-dasharray=""/></g><g><text fill="black" stroke="none" font-family="consolas" font-size="11pt" font-style="normal" font-weight="normal" text-decoration="normal" x="27.882935478999997" y="84.16399361799999" text-anchor="start" dominant-baseline="alphabetic" xml:space="preserve">Client:dynamic</text></g><path fill="none" stroke="none"/><g><path fill="white" stroke="black" paint-order="fill stroke markers" d=" M 198.92767880253123 55.69047771199999 L 308.7552957785 55.69047771199999 L 308.7552957785 101.37878478799999 L 198.92767880253123 101.37878478799999 L 198.92767880253123 55.69047771199999 Z" stroke-miterlimit="10" stroke-width="2.814681184" stroke-dasharray=""/></g><g><text fill="black" stroke="none" font-family="consolas" font-size="11pt" font-style="normal" font-weight="normal" text-decoration="normal" x="218.01473558153123" y="84.16399361799999" text-anchor="start" dominant-baseline="alphabetic" xml:space="preserve">Server:4567</text></g><path fill="none" stroke="none"/><g><path fill="white" stroke="black" paint-order="fill stroke markers" d=" M 370.3264466784999 55.69047771199999 L 501.3137163644296 55.69047771199999 L 501.3137163644296 101.37878478799999 L 370.3264466784999 101.37878478799999 L 370.3264466784999 55.69047771199999 Z" stroke-miterlimit="10" stroke-width="2.814681184" stroke-dasharray=""/></g><g><text fill="black" stroke="none" font-family="consolas" font-size="11pt" font-style="normal" font-weight="normal" text-decoration="normal" x="389.4135034574999" y="84.16399361799999" text-anchor="start" dominant-baseline="alphabetic" xml:space="preserve">Server:dynamic</text></g></g><g><path fill="white" stroke="black" paint-order="fill stroke markers" d=" M 64.28032460126562 184.185699978 L 81.87208200126562 184.185699978 L 81.87208200126562 349.3684048384192 L 64.28032460126562 349.3684048384192 L 64.28032460126562 184.185699978" stroke-miterlimit="10" stroke-width="1.4659797833333332" stroke-dasharray=""/><path fill="white" stroke="black" paint-order="fill stroke markers" d=" M 245.0456085905156 243.39245366332804 L 262.6373659905156 243.39245366332804 L 262.6373659905156 291.01585405332804 L 245.0456085905156 291.01585405332804 L 245.0456085905156 243.39245366332804" stroke-miterlimit="10" stroke-width="1.4659797833333332" stroke-dasharray=""/><path fill="white" stroke="black" paint-order="fill stroke markers" d=" M 427.02420282146477 358.1642835384192 L 444.6159602214648 358.1642835384192 L 444.6159602214648 473.8051761017899 L 427.02420282146477 473.8051761017899 L 427.02420282146477 358.1642835384192" stroke-miterlimit="10" stroke-width="1.4659797833333332" stroke-dasharray=""/><path fill="white" stroke="black" paint-order="fill stroke markers" d=" M 64.28032460126562 415.40335769729734 L 81.87208200126562 415.40335769729734 L 81.87208200126562 456.2134187017899 L 64.28032460126562 456.2134187017899 L 64.28032460126562 415.40335769729734" stroke-miterlimit="10" stroke-width="1.4659797833333332" stroke-dasharray=""/><path fill="white" stroke="black" paint-order="fill stroke markers" d=" M 64.28032460126562 482.6010548017899 L 81.87208200126562 482.6010548017899 L 81.87208200126562 598.5117461261335 L 64.28032460126562 598.5117461261335 L 64.28032460126562 482.6010548017899" stroke-miterlimit="10" stroke-width="1.4659797833333332" stroke-dasharray=""/><path fill="white" stroke="black" paint-order="fill stroke markers" d=" M 427.02420282146477 540.1099277216409 L 444.6159602214648 540.1099277216409 L 444.6159602214648 580.9199887261335 L 427.02420282146477 580.9199887261335 L 427.02420282146477 540.1099277216409" stroke-miterlimit="10" stroke-width="1.4659797833333332" stroke-dasharray=""/><path fill="white" stroke="black" paint-order="fill stroke markers" d=" M 427.02420282146477 607.3076248261335 L 444.6159602214648 607.3076248261335 L 444.6159602214648 722.9485173895042 L 427.02420282146477 722.9485173895042 L 427.02420282146477 607.3076248261335" stroke-miterlimit="10" stroke-width="1.4659797833333332" stroke-dasharray=""/><path fill="white" stroke="black" paint-order="fill stroke markers" d=" M 64.28032460126562 664.5466989850116 L 81.87208200126562 664.5466989850116 L 81.87208200126562 705.3567599895042 L 64.28032460126562 705.3567599895042 L 64.28032460126562 664.5466989850116" stroke-miterlimit="10" stroke-width="1.4659797833333332" stroke-dasharray=""/><path fill="none" stroke="black" paint-order="fill stroke markers" d=" M 8.7958787 150.11214129966666 L 501.2041213 150.11214129966666 M 8.7958787 155.976060433 L 501.2041213 155.976060433 M 8.7958787 161.8399795663333 L 501.2041213 161.8399795663333" stroke-miterlimit="10" stroke-width="1.4659797833333332" stroke-dasharray=""/><path fill="white" stroke="black" paint-order="fill stroke markers" d=" M 140.79748110728517 136.562299588 L 369.2025188927148 136.562299588 L 369.2025188927148 175.389821278 L 140.79748110728517 175.389821278 Z" stroke-miterlimit="10" stroke-width="1.4659797833333332" stroke-dasharray=""/><g><text fill="black" stroke="none" font-family="consolas" font-size="11pt" font-style="normal" font-weight="normal" text-decoration="normal" x="165.42594146728516" y="160.05986125799996" text-anchor="start" dominant-baseline="alphabetic" xml:space="preserve"> Beginning of communication </text></g><g><g><rect fill="white" stroke="none" x="135.1531570860469" y="210.573336078" width="56.6113764196875" height="21.23576429"/></g><text fill="black" stroke="none" font-family="consolas" font-size="11pt" font-style="normal" font-weight="normal" text-decoration="normal" x="137.60343758104688" y="225.275019048" text-anchor="start" dominant-baseline="alphabetic" xml:space="preserve">0,AUTH</text></g><g><path fill="none" stroke="black" paint-order="fill stroke markers" d=" M 81.87208200126562 225.80069626332804 L 230.64517483476465 241.83994117934137" stroke-miterlimit="10" stroke-width="1.4659797833333332" stroke-dasharray=""/><g transform="translate(245.0456085905156,243.39245366332804) rotate(6.1532983071085585,0,0) translate(-245.0456085905156,-243.39245366332804)"><path fill="black" stroke="none" paint-order="stroke fill markers" d=" M 230.38581075718227 236.06255474666136 L 245.0456085905156 243.39245366332804 L 230.38581075718227 250.72235257999472 Z"/><g transform="rotate(-6.1532983071085585,0,0)"/></g></g><g><g><rect fill="white" stroke="none" x="295.43629543384174" y="269.780089763328" width="107.58485664429688" height="21.23576429"/></g><text fill="black" stroke="none" font-family="consolas" font-size="11pt" font-style="normal" font-weight="normal" text-decoration="normal" x="297.88657592884175" y="284.481772733328" text-anchor="start" dominant-baseline="alphabetic" xml:space="preserve">&lt;&lt;open socket&gt;&gt;</text></g><g><path fill="none" stroke="black" paint-order="fill stroke markers" d=" M 262.6373659905156 291.01585405332804 L 433.62111184646477 291.01585405332804" stroke-miterlimit="10" stroke-width="1.4659797833333332" stroke-dasharray="7.0367029599999995"/><g transform="translate(435.8200815214648,291.01585405332804) translate(-435.8200815214648,-291.01585405332804)"><path fill="none" stroke="black" paint-order="fill stroke markers" d=" M 420.74827987817577 284.2921952226567 L 434.17206628164223 291.01585405332804 L 420.74827987817577 297.7395128839994" stroke-miterlimit="10" stroke-width="1.4659797833333332"/></g></g><g><g><rect fill="white" stroke="none" x="217.49817248218554" y="317.40349015332805" width="82.69581855835938" height="21.23576429"/></g><text fill="black" stroke="none" font-family="consolas" font-size="11pt" font-style="normal" font-weight="normal" text-decoration="normal" x="219.94845297718553" y="332.10517312332803" text-anchor="start" dominant-baseline="alphabetic" xml:space="preserve">0,CONFIRM</text></g><g><path fill="none" stroke="black" paint-order="fill stroke markers" d=" M 435.8200815214648 331.7766474384192 L 96.33810598992486 348.6494213015832" stroke-miterlimit="10" stroke-width="1.4659797833333332" stroke-dasharray=""/><g transform="translate(81.87208200126562,349.3684048384192) rotate(-2.8453465931910875,0,0) translate(-81.87208200126562,-349.3684048384192)"><path fill="black" stroke="none" paint-order="stroke fill markers" d=" M 96.53187983459895 342.0385059217526 L 81.87208200126562 349.3684048384192 L 96.53187983459895 356.6983037550859 Z"/><g transform="rotate(2.8453465931910875,0,0)"/></g></g><g><g><rect fill="white" stroke="none" x="235.91339688950973" y="384.55191963841924" width="37.06949104371094" height="21.23576429"/></g><text fill="black" stroke="none" font-family="consolas" font-size="11pt" font-style="normal" font-weight="normal" text-decoration="normal" x="238.3636773845097" y="399.2536026084192" text-anchor="start" dominant-baseline="alphabetic" xml:space="preserve">0,OK</text></g><g><path fill="none" stroke="black" paint-order="fill stroke markers" d=" M 427.02420282146477 397.81160029729733 L 96.33718608421495 414.6660984239419" stroke-miterlimit="10" stroke-width="1.4659797833333332" stroke-dasharray=""/><g transform="translate(81.87208200126562,415.40335769729734) rotate(-2.9177338453011137,0,0) translate(-81.87208200126562,-415.40335769729734)"><path fill="black" stroke="none" paint-order="stroke fill markers" d=" M 96.53187983459895 408.0734587806307 L 81.87208200126562 415.40335769729734 L 96.53187983459895 422.733256613964 Z"/><g transform="rotate(2.9177338453011137,0,0)"/></g></g><g><g><rect fill="white" stroke="none" x="213.1002331321855" y="441.79099379729735" width="82.69581855835938" height="21.23576429"/></g><text fill="black" stroke="none" font-family="consolas" font-size="11pt" font-style="normal" font-weight="normal" text-decoration="normal" x="215.5505136271855" y="456.4926767672973" text-anchor="start" dominant-baseline="alphabetic" xml:space="preserve">0,CONFIRM</text></g><g><path fill="none" stroke="black" paint-order="fill stroke markers" d=" M 81.87208200126562 456.2134187017899 L 412.55909873851544 473.0679168284345" stroke-miterlimit="10" stroke-width="1.4659797833333332" stroke-dasharray=""/><g transform="translate(427.02420282146477,473.8051761017899) rotate(2.9177338453011137,0,0) translate(-427.02420282146477,-473.8051761017899)"><path fill="black" stroke="none" paint-order="stroke fill markers" d=" M 412.3644049881314 466.4752771851233 L 427.02420282146477 473.8051761017899 L 412.3644049881314 481.1350750184566 Z"/><g transform="rotate(-2.9177338453011137,0,0)"/></g></g><g><g><rect fill="white" stroke="none" x="230.61991697007613" y="508.98869090178994" width="47.65645088257813" height="21.23576429"/></g><text fill="black" stroke="none" font-family="consolas" font-size="11pt" font-style="normal" font-weight="normal" text-decoration="normal" x="233.07019746507612" y="523.6903738717899" text-anchor="start" dominant-baseline="alphabetic" xml:space="preserve">1,JOIN</text></g><g><path fill="none" stroke="black" paint-order="fill stroke markers" d=" M 81.87208200126562 522.5181703216409 L 412.55909873851544 539.3726684482855" stroke-miterlimit="10" stroke-width="1.4659797833333332" stroke-dasharray=""/><g transform="translate(427.02420282146477,540.1099277216409) rotate(2.9177338453011137,0,0) translate(-427.02420282146477,-540.1099277216409)"><path fill="black" stroke="none" paint-order="stroke fill markers" d=" M 412.3644049881314 532.7800288049742 L 427.02420282146477 540.1099277216409 L 412.3644049881314 547.4398266383076 Z"/><g transform="rotate(-2.9177338453011137,0,0)"/></g></g><g><g><rect fill="white" stroke="none" x="213.1002331321855" y="566.4975638216409" width="82.69581855835938" height="21.23576429"/></g><text fill="black" stroke="none" font-family="consolas" font-size="11pt" font-style="normal" font-weight="normal" text-decoration="normal" x="215.5505136271855" y="581.1992467916409" text-anchor="start" dominant-baseline="alphabetic" xml:space="preserve">1,CONFIRM</text></g><g><path fill="none" stroke="black" paint-order="fill stroke markers" d=" M 427.02420282146477 580.9199887261335 L 96.33718608421495 597.7744868527781" stroke-miterlimit="10" stroke-width="1.4659797833333332" stroke-dasharray=""/><g transform="translate(81.87208200126562,598.5117461261335) rotate(-2.9177338453011137,0,0) translate(-81.87208200126562,-598.5117461261335)"><path fill="black" stroke="none" paint-order="stroke fill markers" d=" M 96.53187983459895 591.1818472094668 L 81.87208200126562 598.5117461261335 L 96.53187983459895 605.8416450428002 Z"/><g transform="rotate(2.9177338453011137,0,0)"/></g></g><g><g><rect fill="white" stroke="none" x="235.91339688950973" y="633.6952609261335" width="37.06949104371094" height="21.23576429"/></g><text fill="black" stroke="none" font-family="consolas" font-size="11pt" font-style="normal" font-weight="normal" text-decoration="normal" x="238.3636773845097" y="648.3969438961335" text-anchor="start" dominant-baseline="alphabetic" xml:space="preserve">1,OK</text></g><g><path fill="none" stroke="black" paint-order="fill stroke markers" d=" M 427.02420282146477 646.9549415850116 L 96.33718608421495 663.8094397116562" stroke-miterlimit="10" stroke-width="1.4659797833333332" stroke-dasharray=""/><g transform="translate(81.87208200126562,664.5466989850116) rotate(-2.9177338453011137,0,0) translate(-81.87208200126562,-664.5466989850116)"><path fill="black" stroke="none" paint-order="stroke fill markers" d=" M 96.53187983459895 657.2168000683449 L 81.87208200126562 664.5466989850116 L 96.53187983459895 671.8765979016783 Z"/><g transform="rotate(2.9177338453011137,0,0)"/></g></g><g><g><rect fill="white" stroke="none" x="213.1002331321855" y="690.9343350850116" width="82.69581855835938" height="21.23576429"/></g><text fill="black" stroke="none" font-family="consolas" font-size="11pt" font-style="normal" font-weight="normal" text-decoration="normal" x="215.5505136271855" y="705.6360180550116" text-anchor="start" dominant-baseline="alphabetic" xml:space="preserve">1,CONFIRM</text></g><g><path fill="none" stroke="black" paint-order="fill stroke markers" d=" M 81.87208200126562 705.3567599895042 L 412.55909873851544 722.2112581161488" stroke-miterlimit="10" stroke-width="1.4659797833333332" stroke-dasharray=""/><g transform="translate(427.02420282146477,722.9485173895042) rotate(2.9177338453011137,0,0) translate(-427.02420282146477,-722.9485173895042)"><path fill="black" stroke="none" paint-order="stroke fill markers" d=" M 412.3644049881314 715.6186184728375 L 427.02420282146477 722.9485173895042 L 412.3644049881314 730.2784163061709 Z"/><g transform="rotate(-2.9177338453011137,0,0)"/></g></g><path fill="white" stroke="black" paint-order="fill stroke markers" d=" M 57.24362164126562 749.3361534895042 L 435.8200815214647 749.3361534895042 L 451.65266318146473 765.1687351495042 L 451.65266318146473 788.1636751795043 L 57.24362164126562 788.1636751795043 L 57.24362164126562 749.3361534895042 M 435.8200815214647 749.3361534895042 L 435.8200815214647 765.1687351495042 L 451.65266318146473 765.1687351495042" stroke-miterlimit="10" stroke-width="1.4659797833333332" stroke-dasharray=""/><g><text fill="black" stroke="none" font-family="consolas" font-size="11pt" font-style="normal" font-weight="normal" text-decoration="normal" x="169.54837739671672" y="772.8337151595043" text-anchor="start" dominant-baseline="alphabetic" xml:space="preserve">Following communication ...</text></g></g></g></svg>